<?xml version="1.0" encoding="UTF-8" standalone="no"?>
<svg
   viewBox="0 0 16 16"
   version="1.1"
   id="svg4"
   sodipodi:docname="msca_icon.svg"
   width="16"
   height="16"
   inkscape:version="1.2 (dc2aedaf03, 2022-05-15)"
   xmlns:inkscape="http://www.inkscape.org/namespaces/inkscape"
   xmlns:sodipodi="http://sodipodi.sourceforge.net/DTD/sodipodi-0.dtd"
   xmlns="http://www.w3.org/2000/svg"
   xmlns:svg="http://www.w3.org/2000/svg">
  <defs
     id="defs8" />
  <sodipodi:namedview
     id="namedview6"
     pagecolor="#ffffff"
     bordercolor="#666666"
     borderopacity="1.0"
     inkscape:showpageshadow="2"
     inkscape:pageopacity="0.0"
     inkscape:pagecheckerboard="0"
     inkscape:deskcolor="#d1d1d1"
     showgrid="false"
     inkscape:zoom="1.6347656"
     inkscape:cx="256.30585"
     inkscape:cy="207.36918"
     inkscape:window-width="1920"
     inkscape:window-height="1017"
     inkscape:window-x="-8"
     inkscape:window-y="-8"
     inkscape:window-maximized="1"
     inkscape:current-layer="svg4" />
  <!--! Font Awesome Pro 6.1.1 by @fontawesome - https://fontawesome.com License - https://fontawesome.com/license (Commercial License) Copyright 2022 Fonticons, Inc. -->
  <path
     d="M 8,0 C 3.58125,0 0,3.58125 0,8 c 0,4.41875 3.58125,8 8,8 4.41875,0 8,-3.58125 8,-8 C 16,3.58125 12.41875,0 8,0 Z M 8,2.5 C 8.6903125,2.5 9.25,3.0596875 9.25,3.75 9.25,4.4403125 8.690625,5 8,5 7.309375,5 6.75,4.440625 6.75,3.75 6.75,3.059375 7.309375,2.5 8,2.5 Z M 11.70625,6.721875 9.853125,7.25 C 9.7375,7.284375 9.61875,7.3 9.5,7.325 v 1.9475 l 0.9575,2.729375 C 10.594719,12.3925 10.38913,12.820313 9.9984375,12.957813 9.915625,12.9875 9.83125,13 9.75,13 9.4404375,13 9.1503125,12.806625 9.0425,12.498125 L 8.2346875,10.290313 C 8.1546245,10.0715 7.8453125,10.0715 7.765,10.290313 L 6.9571875,12.498125 C 6.85,12.80625 6.559375,13 6.25,13 6.167469,13 6.084,12.986328 6.0014687,12.958 5.6108437,12.820313 5.4052187,12.392688 5.5424062,12.002063 L 6.5,9.271875 V 7.325 C 6.38125,7.3 6.2625,7.284375 6.146875,7.25 L 4.29375,6.721875 C 3.896875,6.60625 3.665625,6.19375 3.778125,5.79375 3.890625,5.39375 4.309375,5.1625 4.70625,5.278125 L 6.5578125,5.8075 C 7.500625,6.0769687 8.5,6.0769687 9.4425,5.8075 L 11.294062,5.278125 C 11.690937,5.1599687 12.107187,5.3943437 12.22125,5.7928125 12.334375,6.19375 12.103125,6.60625 11.70625,6.721875 Z"
     id="path2"
     style="fill:#ffffff;stroke-width:0.0312501" />
</svg>
